<?xml version="1.0" encoding="utf-8"?>
<svg fill="#000000" height="24" width="24" version="1.1" viewBox="0 0 298 298" enable-background="new 0 0 298 298" xmlns="http://www.w3.org/2000/svg">
  <path d="M 298 141 L 263.884 141 C 259.762 81.399 209.963 34.166 149.333 34.166 C 88.703 34.166 38.904 81.399 34.782 141 L 0 141 L 0 157 L 34.782 157 C 38.904 216.601 88.703 263.834 149.333 263.834 C 209.963 263.834 259.762 216.601 263.884 157 L 298 157 L 298 141 Z M 148.567 243.62 C 96.763 243.62 59.889 208.536 55.803 157.766 L 100 157 L 100 215.732 L 182 163.803 L 182 215 L 198 215 L 198 157 L 242.863 157 C 238.777 207.77 200.371 243.62 148.567 243.62 Z M 198 141 L 198 83 L 182 83 L 182 134.013 L 100 82.082 L 100 141 L 55.803 141.766 C 59.889 90.996 97.146 53.996 148.95 53.996 C 200.754 53.996 238.777 90.23 242.863 141 L 198 141 Z"/>
</svg>