<?xml version="1.0" encoding="utf-8"?>
<svg viewBox="0 -20 17 17" version="1.1" class="si-glyph si-glyph-clamp" xmlns="http://www.w3.org/2000/svg">
  <path d="M 8.417 2.026 L 12.862 1.939 C 12.87 1.959 12.865 3.402 12.892 3.403 C 12.999 3.408 15.712 3.356 15.69 3.337 L 15.69 0.043 L 8.417 0.13 C 7.13 0.13 4.503 1.223 4.503 2.51 L 4.503 8.881 C 4.503 10.168 7.13 11.067 8.417 11.067 L 13.698 10.98 L 13.698 14.069 L 13.058 14.069 L 13.058 14.884 C 12.233 15.15 11.668 15.623 11.668 16 L 16.65 16 C 16.65 15.624 16.091 15.154 15.275 14.888 L 15.275 14.069 L 14.635 14.069 L 14.635 10.98 L 15.673 10.98 L 15.673 9.041 L 14.635 9.041 L 14.635 6.949 C 14.669 6.939 14.697 6.928 14.728 6.918 L 15.634 6.918 L 15.634 6.027 L 12.738 6.027 L 12.738 6.918 L 13.591 6.918 C 13.627 6.93 13.657 6.941 13.696 6.952 L 13.696 9.041 L 8.415 9.128 C 8.231 9.128 6.464 9.065 6.464 8.881 L 6.464 2.445 C 6.466 2.262 8.233 2.026 8.417 2.026 Z" fill="#434343" class="si-glyph-fill" stroke="none" stroke-width="1" fill-rule="evenodd" style="transform-box: fill-box; transform-origin: 50% 50%;" transform="matrix(0, -1, 1, 0, -2.270999, -1.923)"/>
</svg>