<svg xmlns="http://www.w3.org/2000/svg"  viewBox="0 0 30 30" width="30px" height="30px"><path d="M 15 3 A 1.0001 1.0001 0 0 0 14.875 3.0078125 C 11.581645 3.0190024 9.0317741 3.4135955 7.2714844 3.9042969 C 6.3788142 4.1531392 5.687815 4.4210369 5.1679688 4.6992188 C 4.9080456 4.8383097 4.6909134 4.9749733 4.4902344 5.15625 C 4.2895554 5.3375267 4 5.5604158 4 6.1484375 L 4 15.285156 C 4 16.903385 4.858513 19.213881 6.6035156 21.550781 C 8.3485182 23.887681 11.048442 26.142085 14.783203 26.974609 A 1.0001 1.0001 0 0 0 15.216797 26.974609 C 18.951603 26.142075 21.651494 23.887931 23.396484 21.550781 C 25.141474 19.213632 26 16.901432 26 15.283203 L 26 6.1484375 C 26 5.5604158 25.710445 5.3375267 25.509766 5.15625 C 25.309087 4.9749733 25.091954 4.8383096 24.832031 4.6992188 C 24.312185 4.4210369 23.621186 4.1531392 22.728516 3.9042969 C 20.969006 3.4138129 18.42013 3.0193411 15.128906 3.0078125 A 1.0001 1.0001 0 0 0 15 3 z M 15 5 C 18.199876 5 20.617247 5.3912627 22.191406 5.8300781 C 22.978486 6.0494858 23.558831 6.2863849 23.888672 6.4628906 C 23.953942 6.4978186 23.955912 6.5049171 24 6.5332031 L 24 15.283203 C 24 16.035974 23.319432 18.311665 21.794922 20.353516 C 20.477638 22.117818 18.553043 23.755382 16 24.628906 L 16 21.964844 L 14 21.964844 L 14 24.628906 C 11.446933 23.755343 9.5223513 22.117602 8.2050781 20.353516 C 6.6805807 18.311915 6 16.037927 6 15.285156 L 6 6.5332031 C 6.0440884 6.5049161 6.0460578 6.4978183 6.1113281 6.4628906 C 6.4411693 6.2863849 7.0215139 6.0494858 7.8085938 5.8300781 C 9.3827533 5.3912627 11.800124 5 15 5 z M 10.728516 8 C 8.0005156 8 7 10 7 10 C 7 10 8.354 9 10 9 C 11.342 9 12.100422 10.438125 12.107422 10.453125 L 12.109375 10.453125 A 1 1 0 0 0 13 11 A 1 1 0 0 0 14 10 A 1 1 0 0 0 13.894531 9.5527344 C 13.894256 9.5521739 13.890928 9.5475132 13.890625 9.546875 C 13.834751 9.4290967 13.302568 8 10.728516 8 z M 19.271484 8 C 16.683484 8 16.156469 9.4487344 16.105469 9.5527344 L 16.107422 9.5527344 A 1 1 0 0 0 16 10 A 1 1 0 0 0 17 11 A 1 1 0 0 0 17.890625 10.451172 L 17.892578 10.453125 C 17.899578 10.438125 18.658 9 20 9 C 21.646 9 23 10 23 10 C 23 10 21.999484 8 19.271484 8 z M 10.5 11 C 9.475 11 8.574 11.396 8 12 C 8.574 12.604 9.475 13 10.5 13 C 11.525 13 12.426 12.604 13 12 C 12.426 11.396 11.525 11 10.5 11 z M 19.5 11 C 18.475 11 17.574 11.396 17 12 C 17.574 12.604 18.475 13 19.5 13 C 20.525 13 21.426 12.604 22 12 C 21.426 11.396 20.525 11 19.5 11 z M 15.005859 15.353516 L 12.96875 18 L 11.462891 18 L 9.7636719 15.990234 L 8.2363281 17.283203 L 10.537109 20 L 13.951172 20 L 14.994141 18.646484 L 16.019531 20 L 19.462891 20 L 21.763672 17.283203 L 20.236328 15.990234 L 18.537109 18 L 17.013672 18 L 15.005859 15.353516 z"/></svg>