<svg width="16" height="16" viewBox="0 0 16 16" fill="none" xmlns="http://www.w3.org/2000/svg">
<path d="M9.00016 13.3333C4.60016 9.26665 2.3335 7.19998 2.3335 4.73332C2.3335 2.66665 3.9335 1.06665 6.00016 1.06665C7.1335 1.06665 8.26683 1.59998 9.00016 2.46665C9.7335 1.59998 10.8668 1.06665 12.0002 1.06665C14.0668 1.06665 15.6668 2.66665 15.6668 4.73332C15.6668 7.26665 13.4002 9.33332 9.00016 13.3333ZM8.00016 14.0666C3.60016 10.1333 1.00016 7.79998 1.00016 4.66665C1.00016 4.53332 1.00016 4.39998 1.00016 4.26665C0.600163 4.86665 0.333496 5.59998 0.333496 6.39998C0.333496 8.93332 2.60016 11 7.00016 14.9333L8.00016 14.0666Z" fill="#58A8BA"/>
</svg>
