<svg width="24" height="24" viewBox="0 0 24 24" xmlns="http://www.w3.org/2000/svg">
<path d="M10 4C8.93913 4 7.92172 4.42143 7.17157 5.17157C6.42143 5.92172 6 6.93913 6 8C6 9.06087 6.42143 10.0783 7.17157 10.8284C7.92172 11.5786 8.93913 12 10 12C11.0609 12 12.0783 11.5786 12.8284 10.8284C13.5786 10.0783 14 9.06087 14 8C14 6.93913 13.5786 5.92172 12.8284 5.17157C12.0783 4.42143 11.0609 4 10 4ZM17.5 13C15 13 13 15 13 17.5C13 20 15 22 17.5 22C20 22 22 20 22 17.5C22 15 20 13 17.5 13ZM10 14C5.58 14 2 15.79 2 18V20H11.5C11.1699 19.2078 11 18.3582 11 17.5C11.0043 16.3143 11.3328 15.1524 11.95 14.14C11.32 14.06 10.68 14 10 14ZM17.5 14.5C19.16 14.5 20.5 15.84 20.5 17.5C20.5 18.06 20.35 18.58 20.08 19L16 14.92C16.42 14.65 16.94 14.5 17.5 14.5ZM14.92 16L19 20.08C18.58 20.35 18.06 20.5 17.5 20.5C15.84 20.5 14.5 19.16 14.5 17.5C14.5 16.94 14.65 16.42 14.92 16Z" />
</svg>
