<svg xmlns="http://www.w3.org/2000/svg" xmlns:xlink="http://www.w3.org/1999/xlink" width="20px" height="20px" viewBox="0 0 20 20" version="1.1">
<path  d="M 16.773438 12.519531 C 16.746094 12.519531 16.714844 12.515625 16.707031 12.515625 C 15.050781 12.417969 13.542969 11.539062 12.636719 10.148438 C 12.597656 10.097656 12.554688 10.046875 12.511719 10 C 12.554688 9.953125 12.597656 9.902344 12.636719 9.851562 C 13.542969 8.460938 15.050781 7.582031 16.707031 7.484375 C 16.714844 7.484375 16.746094 7.484375 16.773438 7.480469 C 18.335938 7.425781 19.648438 6.292969 19.929688 4.753906 C 20.207031 3.214844 19.378906 1.691406 17.9375 1.089844 C 16.492188 0.488281 14.828125 0.976562 13.933594 2.257812 C 13.039062 3.539062 13.15625 5.269531 14.21875 6.417969 L 10.425781 8.566406 L 4.082031 4.976562 C 3.429688 4.605469 2.636719 4.589844 1.972656 4.933594 L 0.359375 5.730469 L 7.894531 10 L 0.359375 14.269531 L 1.972656 15.066406 C 2.636719 15.410156 3.433594 15.394531 4.082031 15.027344 L 10.425781 11.4375 L 14.21875 13.585938 C 13.148438 14.734375 13.027344 16.476562 13.925781 17.765625 C 14.824219 19.054688 16.496094 19.539062 17.949219 18.9375 C 19.398438 18.332031 20.230469 16.800781 19.945312 15.253906 C 19.664062 13.710938 18.34375 12.570312 16.773438 12.519531 Z M 16.792969 2.421875 C 17.753906 2.488281 18.480469 3.328125 18.414062 4.292969 C 18.34375 5.253906 17.503906 5.980469 16.542969 5.914062 C 15.578125 5.84375 14.851562 5.003906 14.921875 4.042969 C 14.992188 3.078125 15.828125 2.351562 16.792969 2.421875 Z M 16.792969 17.578125 C 15.828125 17.648438 14.988281 16.921875 14.921875 15.957031 C 14.851562 14.996094 15.578125 14.15625 16.539062 14.085938 C 17.503906 14.019531 18.34375 14.742188 18.410156 15.707031 C 18.480469 16.671875 17.753906 17.507812 16.792969 17.578125 Z M 16.792969 17.578125 "/>
</svg>