<?xml version="1.0" encoding="UTF-8" standalone="no"?><!DOCTYPE svg PUBLIC "-//W3C//DTD SVG 1.1//EN" "http://www.w3.org/Graphics/SVG/1.1/DTD/svg11.dtd"><svg width="100%" height="100%" viewBox="0 0 24 24" version="1.1" xmlns="http://www.w3.org/2000/svg" xmlns:xlink="http://www.w3.org/1999/xlink" xml:space="preserve" xmlns:serif="http://www.serif.com/" style="fill-rule:evenodd;clip-rule:evenodd;stroke-linejoin:round;stroke-miterlimit:2;"><path d="M2.01,3.87l1.41,-1.42l17.73,17.75l-1.41,1.41l-3.43,-3.43c-1.34,0.52 -2.79,0.82 -4.31,0.82c-5,0 -9.27,-3.11 -11,-7.5c0.77,-1.97 2.06,-3.67 3.69,-4.95l-2.68,-2.68Zm14.99,7.63c0,-2.76 -2.24,-5 -5,-5c-0.51,0 -1,0.1 -1.47,0.24l-2.17,-2.17c1.15,-0.37 2.37,-0.57 3.64,-0.57c5,0 9.27,3.11 11,7.49c-0.69,1.76 -1.79,3.3 -3.18,4.53l-3.06,-3.06c0.14,-0.46 0.24,-0.95 0.24,-1.46Zm-5,5c0.77,0 1.49,-0.18 2.14,-0.5l-1.57,-1.57c-0.19,0.04 -0.37,0.07 -0.57,0.07c-1.66,0 -3,-1.34 -3,-3c0,-0.2 0.03,-0.39 0.06,-0.57l-1.57,-1.57c-0.31,0.64 -0.49,1.37 -0.49,2.14c0,2.76 2.24,5 5,5Zm2.97,-5.33l-2.64,-2.64c1.39,0.15 2.49,1.24 2.64,2.64Z"/></svg>