<svg width="20" height="20" viewBox="0 0 20 20" xmlns="http://www.w3.org/2000/svg">
    <path d="M14.7165 9.33333C14.5248 9.08333 14.2915 8.86667 14.0748 8.65C13.5165 8.15 12.8831 7.79167 12.3498 7.26667C11.1081 6.05 10.8331 4.04167 11.6248 2.5C10.8331 2.69167 10.1415 3.125 9.5498 3.6C7.39146 5.33333 6.54146 8.39167 7.55813 11.0167C7.59146 11.1 7.6248 11.1833 7.6248 11.2917C7.6248 11.475 7.4998 11.6417 7.33313 11.7083C7.14146 11.7917 6.94146 11.7417 6.78313 11.6083C6.73313 11.5667 6.6998 11.525 6.66646 11.4667C5.7248 10.275 5.5748 8.56667 6.20813 7.2C4.81646 8.33333 4.05813 10.25 4.16646 12.0583C4.21646 12.475 4.26646 12.8917 4.40813 13.3083C4.5248 13.8083 4.7498 14.3083 4.9998 14.75C5.8998 16.1917 7.45813 17.225 9.13313 17.4333C10.9165 17.6583 12.8248 17.3333 14.1915 16.1C15.7165 14.7167 16.2498 12.5 15.4665 10.6L15.3581 10.3833C15.1831 10 14.7165 9.33333 14.7165 9.33333ZM12.0831 14.5833C11.8498 14.7833 11.4665 15 11.1665 15.0833C10.2331 15.4167 9.2998 14.95 8.7498 14.4C9.74146 14.1667 10.3331 13.4333 10.5081 12.6917C10.6498 12.025 10.3831 11.475 10.2748 10.8333C10.1748 10.2167 10.1915 9.69167 10.4165 9.11667C10.5748 9.43333 10.7415 9.75 10.9415 10C11.5831 10.8333 12.5915 11.2 12.8081 12.3333C12.8415 12.45 12.8581 12.5667 12.8581 12.6917C12.8831 13.375 12.5831 14.125 12.0831 14.5833Z" />
</svg>
