<svg version="1.0" xmlns="http://www.w3.org/2000/svg"
 width="16" height="16" viewBox="0 0 96.000000 96.000000"
 preserveAspectRatio="xMidYMid meet">

<g transform="translate(0.000000,96.000000) scale(0.100000,-0.100000)"
fill="#000000" stroke="none">
<path d="M386 870 c-63 -16 -153 -70 -197 -117 -22 -24 -55 -74 -72 -111 -29
-61 -32 -76 -32 -163 0 -90 2 -99 37 -171 45 -91 103 -147 196 -191 61 -29 76
-32 162 -32 86 0 101 3 162 32 93 44 151 100 196 191 35 72 37 81 37 172 0 91
-2 100 -37 172 -68 136 -188 217 -336 224 -42 2 -94 -1 -116 -6z m134 -230 l0
-40 -40 0 -40 0 0 40 0 40 40 0 40 0 0 -40z m0 -240 l0 -120 -40 0 -40 0 0
120 0 120 40 0 40 0 0 -120z"/>
</g>
</svg>
