<svg width="18" height="18" viewBox="0 0 18 18" xmlns="http://www.w3.org/2000/svg">
    <path d="M15.75 4.5C14.505 4.5 13.5 5.505 13.5 6.75V9.75C13.5 10.1625 13.1625 10.5 12.75 10.5V7.5C12.75 6.255 11.745 5.25 10.5 5.25H7.5C6.255 5.25 5.25 6.255 5.25 7.5H6.75C6.75 7.0875 7.0875 6.75 7.5 6.75H10.5C10.9125 6.75 11.25 7.0875 11.25 7.5V8.25H4.5C2.8425 8.25 1.5 9.5925 1.5 11.25V13.5H12.75V12C13.995 12 15 10.995 15 9.75V6.75C15 6.3375 15.3375 6 15.75 6H16.5V4.5H15.75ZM11.25 12H3V11.25C3 10.425 3.675 9.75 4.5 9.75H11.25V12Z" />
</svg>
