<svg width="18" height="18" viewBox="0 0 18 18" xmlns="http://www.w3.org/2000/svg">
    <path fill-rule="evenodd" clip-rule="evenodd" d="M6.00004 5C6.00004 3.89543 6.89547 3 8.00004 3H13C14.1046 3 15 3.89543 15 5V8C15.5523 8 16 8.44772 16 9V15H2.6629C2.33071 15 2.09088 14.682 2.18214 14.3626L2.96392 11.6264C3.57721 9.47989 5.53914 8 7.77154 8H13V5.5C13 4.94772 12.5523 4.5 12 4.5H8.25004C7.83582 4.5 7.50004 4.83579 7.50004 5.25C7.50004 5.66421 7.16425 6 6.75004 6C6.33582 6 6.00004 5.66421 6.00004 5.25V5ZM5.75 13C5.75 13.4142 5.41421 13.75 5 13.75C4.58579 13.75 4.25 13.4142 4.25 13C4.25 12.5858 4.58579 12.25 5 12.25C5.41421 12.25 5.75 12.5858 5.75 13ZM8 13.75C8.41421 13.75 8.75 13.4142 8.75 13C8.75 12.5858 8.41421 12.25 8 12.25C7.58579 12.25 7.25 12.5858 7.25 13C7.25 13.4142 7.58579 13.75 8 13.75ZM11 13.75C11.4142 13.75 11.75 13.4142 11.75 13C11.75 12.5858 11.4142 12.25 11 12.25C10.5858 12.25 10.25 12.5858 10.25 13C10.25 13.4142 10.5858 13.75 11 13.75ZM14.75 13C14.75 13.4142 14.4142 13.75 14 13.75C13.5858 13.75 13.25 13.4142 13.25 13C13.25 12.5858 13.5858 12.25 14 12.25C14.4142 12.25 14.75 12.5858 14.75 13Z" />
</svg>
