<svg width="16" height="16" viewBox="0 0 16 16" xmlns="http://www.w3.org/2000/svg">
    <path d="M7.06005 8.93998C7.33338 9.19999 7.33338 9.62665 7.06005 9.88665C6.80005 10.1467 6.37338 10.1467 6.11338 9.88665C4.81338 8.58665 4.81338 6.47332 6.11338 5.17332L8.47338 2.81332C9.77338 1.51332 11.8867 1.51332 13.1867 2.81332C14.4867 4.11332 14.4867 6.22665 13.1867 7.52665L12.1934 8.51998C12.2 7.97332 12.1134 7.42665 11.9267 6.90665L12.24 6.58665C13.0267 5.80665 13.0267 4.53998 12.24 3.75998C11.46 2.97332 10.1934 2.97332 9.41338 3.75998L7.06005 6.11332C6.27338 6.89332 6.27338 8.15999 7.06005 8.93998ZM8.94005 6.11332C9.20005 5.85332 9.62671 5.85332 9.88671 6.11332C11.1867 7.41332 11.1867 9.52665 9.88671 10.8267L7.52671 13.1867C6.22671 14.4867 4.11338 14.4867 2.81338 13.1867C1.51338 11.8867 1.51338 9.77332 2.81338 8.47332L3.80671 7.47999C3.80005 8.02665 3.88671 8.57332 4.07338 9.09998L3.76005 9.41332C2.97338 10.1933 2.97338 11.46 3.76005 12.24C4.54005 13.0267 5.80671 13.0267 6.58671 12.24L8.94005 9.88665C9.72671 9.10665 9.72671 7.83998 8.94005 7.05999C8.66671 6.79998 8.66671 6.37332 8.94005 6.11332Z" />
</svg>
