<svg width="16" height="16" viewBox="0 0 16 16" fill="none" xmlns="http://www.w3.org/2000/svg">
<path d="M8.00016 6.66659C7.26683 6.66659 6.66683 7.26659 6.66683 7.99992C6.66683 8.73325 7.26683 9.33325 8.00016 9.33325C8.7335 9.33325 9.3335 8.73325 9.3335 7.99992C9.3335 7.26659 8.7335 6.66659 8.00016 6.66659ZM12.0002 7.99992C12.0002 5.79992 10.2002 3.99992 8.00016 3.99992C5.80016 3.99992 4.00016 5.79992 4.00016 7.99992C4.00016 9.46659 4.80016 10.7333 6.00016 11.4666L6.66683 10.3333C5.86683 9.86659 5.3335 8.99992 5.3335 8.06659C5.3335 6.59992 6.5335 5.39992 8.00016 5.39992C9.46683 5.39992 10.6668 6.59992 10.6668 8.06659C10.6668 9.06659 10.1335 9.93325 9.3335 10.3333L10.0002 11.4666C11.2002 10.7999 12.0002 9.46659 12.0002 7.99992ZM8.00016 1.33325C4.3335 1.33325 1.3335 4.33325 1.3335 7.99992C1.3335 10.4666 2.66683 12.5999 4.66683 13.7333L5.3335 12.5999C3.7335 11.6666 2.66683 9.93325 2.66683 7.99992C2.66683 5.06659 5.06683 2.66659 8.00016 2.66659C10.9335 2.66659 13.3335 5.06659 13.3335 7.99992C13.3335 9.99992 12.2668 11.6666 10.6668 12.5999L11.3335 13.7333C13.3335 12.5999 14.6668 10.4666 14.6668 7.99992C14.6668 4.33325 11.6668 1.33325 8.00016 1.33325Z" fill="white" fill-opacity="0.6"/>
</svg>
