<svg version="1.0" xmlns="http://www.w3.org/2000/svg"
     width="16" height="16"
     viewBox="0 0 96.000000 96.000000"
 preserveAspectRatio="xMidYMid meet">

<g transform="translate(0.000000,96.000000) scale(0.100000,-0.100000)"
 stroke="none">
<path d="M212 789 c-45 -13 -108 -79 -121 -126 -6 -21 -11 -130 -11 -246 0
-279 -23 -257 265 -257 l215 0 0 33 c0 18 9 48 19 68 11 20 25 55 31 78 15 56
76 116 132 131 24 7 64 9 91 5 l49 -6 -4 98 c-4 114 -23 156 -91 201 l-40 27
-251 2 c-141 1 -265 -2 -284 -8z m152 -108 l31 -31 3 -205 3 -205 -121 0 -121
0 3 204 c3 202 3 205 28 231 33 36 57 46 104 41 27 -3 49 -14 70 -35z"/>
<path d="M240 560 l0 -40 40 0 40 0 0 40 0 40 -40 0 -40 0 0 -40z"/>
<path d="M743 384 c-35 -17 -63 -67 -63 -111 0 -17 -8 -33 -20 -41 -18 -11
-20 -23 -20 -110 0 -63 4 -102 12 -110 17 -17 279 -17 296 0 8 8 12 47 12 110
0 87 -2 99 -20 110 -12 8 -20 24 -20 41 0 46 -28 94 -65 111 -41 20 -71 20
-112 0z m97 -64 c11 -11 20 -33 20 -50 l0 -30 -60 0 -60 0 0 30 c0 34 31 70
60 70 11 0 29 -9 40 -20z"/>
</g>
</svg>
