<svg version="1.0" xmlns="http://www.w3.org/2000/svg"
 width="96.000000pt" height="96.000000pt" viewBox="0 0 96.000000 96.000000"
 preserveAspectRatio="xMidYMid meet">

<g transform="translate(0.000000,96.000000) scale(0.100000,-0.100000)"
fill="#000000" stroke="none">
<path d="M290 810 c-101 -60 -190 -117 -197 -126 -10 -13 -13 -76 -13 -246 l0
-229 25 -24 24 -25 351 0 351 0 24 25 25 24 0 229 c0 204 -2 232 -17 250 -15
17 -374 233 -385 231 -2 0 -86 -49 -188 -109z m351 -76 c82 -48 149 -90 149
-94 0 -5 -70 -51 -155 -104 l-155 -96 -153 95 c-83 53 -152 100 -152 105 0 12
284 179 304 180 7 0 81 -39 162 -86z"/>
<path d="M415 700 l-59 -60 42 0 42 0 0 -48 c0 -55 25 -81 60 -62 16 8 20 21
20 60 l0 50 42 0 42 0 -59 60 c-33 33 -62 60 -65 60 -3 0 -32 -27 -65 -60z"/>
</g>
</svg>
