<svg version="1.0" xmlns="http://www.w3.org/2000/svg"
width="16" height="16" viewBox="0 0 96.000000 96.000000"
 preserveAspectRatio="xMidYMid meet">

<g transform="translate(0.000000,96.000000) scale(0.100000,-0.100000)" stroke="none">
<path d="M105 775 l-25 -24 0 -271 0 -271 25 -24 c24 -25 24 -25 240 -25 l215
0 0 33 c0 18 9 48 19 68 11 20 25 55 31 78 15 56 76 116 132 131 24 7 64 9 90
6 l48 -7 0 141 c0 136 -1 142 -25 165 l-24 25 -351 0 -351 0 -24 -25z m293
-204 l82 -51 83 51 c45 29 117 74 160 101 l78 49 -3 -42 -3 -42 -157 -99 -158
-98 -157 98 -158 99 -3 42 -3 42 78 -49 c43 -27 115 -72 161 -101z"/>
<path d="M743 384 c-35 -17 -63 -67 -63 -111 0 -17 -8 -33 -20 -41 -18 -11
-20 -23 -20 -110 0 -63 4 -102 12 -110 17 -17 279 -17 296 0 8 8 12 47 12 110
0 87 -2 99 -20 110 -12 8 -20 24 -20 41 0 46 -28 94 -65 111 -41 20 -71 20
-112 0z m97 -64 c11 -11 20 -33 20 -50 l0 -30 -60 0 -60 0 0 30 c0 34 31 70
60 70 11 0 29 -9 40 -20z"/>
</g>
</svg>
