<svg width="58" height="62" viewBox="0 0 58 62" xmlns="http://www.w3.org/2000/svg">
    <path d="M10.0768 0.155337C12.7038 0.773439 13.6309 1.85512 13.3219 3.40037C12.7038 4.7911 10.6949 4.32752 8.9951 3.40037C7.29532 2.47322 4.66839 4.173 4.66839 8.49971C4.66839 12.8264 8.48939 16.5772 9.72559 18.586C10.7146 20.1931 11.8889 20.0797 12.507 19.8222C16.3758 17.4042 16.159 15.473 19.1938 12.5174C22.2843 9.66464 25.2202 5.2326 34.1827 5.87278C44.9995 6.64541 44.6904 11.1266 44.6904 14.9898C44.6904 19.3165 39.5911 24.2613 37.5823 24.8794C35.5735 25.4975 37.5823 27.1973 39.5911 27.1973C41.6 27.1973 53.0348 21.3253 53.0348 18.0803C53.0348 14.9898 51.7986 13.5991 49.7898 12.5174C47.781 11.4357 48.09 8.19066 51.7986 8.96329C54.7346 9.57495 58.9068 13.1355 57.8251 19.3165C56.7849 25.2606 44.0723 31.524 40.2092 34.9236C38.4385 36.4818 37.5823 40.893 37.5823 42.8044C37.5823 47.1311 38.0459 53.7475 38.0459 55.6019C38.0459 57.4562 38.973 57.9197 40.2092 57.9197C42.8361 57.9197 42.9907 60.2376 42.218 61.4738C41.4454 62.71 35.3486 61.9864 34.1827 60.2376C32.6375 57.9197 30.9894 55.7857 30.1651 50.2216C29.547 46.0494 28.9289 43.7315 28.0017 41.5682C26.611 38.3231 21.5116 38.1686 16.7213 39.2503C8.99187 40.9956 6.98797 53.463 5.44099 59.8724C4.49836 63.7779 -0.446995 62.9318 0.032674 59.2543C1.88698 45.038 7.44986 30.1333 7.14081 26.4247C6.83176 22.7161 0.341725 16.535 0.032674 8.49971C-0.276377 0.464388 7.44989 -0.462765 10.0768 0.155337Z" />
    <circle cx="29.2052" cy="13.4437" r="1.39073" fill="white"/>
    <circle cx="39.4039" cy="13.4437" r="1.39073" fill="white"/>
</svg>
