<svg width="20" height="20" viewBox="0 0 20 20" xmlns="http://www.w3.org/2000/svg">
    <path fill-rule="evenodd" clip-rule="evenodd" d="M5.85575 1.98417C5.9452 1.53693 5.67685 1.22386 4.91654 1.04496C4.15623 0.866062 1.92001 1.13441 2.00946 3.46007C2.06364 4.86876 2.77416 6.08053 3.34592 7.05565C3.71811 7.6904 4.0315 8.22488 4.06677 8.6481C4.10703 9.13121 3.80301 10.2707 3.40754 11.7531C2.92434 13.5643 2.3046 15.8873 2.00946 18.15C1.87063 19.2144 3.30196 19.4593 3.57479 18.3289C3.62005 18.1414 3.66667 17.9359 3.71621 17.7175C4.15674 15.7759 4.82869 12.8143 6.83967 12.3602C8.22612 12.0472 9.70203 12.0919 10.1045 13.0311C10.3729 13.6572 10.5518 14.3281 10.7307 15.5357C10.9532 17.0374 11.383 17.6759 11.8027 18.2993C11.8331 18.3443 11.8634 18.3893 11.8935 18.4346C12.231 18.9407 13.9956 19.1502 14.2192 18.7924C14.4428 18.4346 14.3981 17.7637 13.6378 17.7637C13.28 17.7637 13.0116 17.6296 13.0116 17.0929C13.0116 16.8805 12.9906 16.4524 12.9652 15.935C12.9265 15.1446 12.8775 14.1457 12.8775 13.3889C12.8775 12.8357 13.1253 11.5589 13.6378 11.1079C13.9588 10.8255 14.4909 10.4747 15.0935 10.0774C16.5901 9.09073 18.5217 7.81727 18.7363 6.59078C19.0494 4.80181 17.8419 3.77128 16.9921 3.59425C15.9187 3.37063 15.8293 4.30984 16.4107 4.62291C16.9921 4.93598 17.3499 5.3385 17.3499 6.23299C17.3499 7.1722 14.0403 8.87172 13.4589 8.87172C12.8775 8.87172 12.296 8.37976 12.8775 8.20086C13.4589 8.02196 14.9348 6.59078 14.9348 5.3385C14.9348 5.30838 14.9348 5.27814 14.9349 5.24779C14.9373 4.1513 14.9399 2.91736 11.8935 2.69976C9.65014 2.53952 8.71134 3.47728 7.91995 4.26779C7.79625 4.39134 7.67616 4.5113 7.55526 4.62291C7.19935 4.96954 6.99796 5.26748 6.8098 5.54585C6.53361 5.95446 6.28594 6.32088 5.61991 6.73715C5.44102 6.81169 5.10112 6.84449 4.81488 6.37935C4.73306 6.24639 4.61211 6.08707 4.47422 5.90541C4.00911 5.29271 3.35117 4.42598 3.35117 3.46007C3.35117 2.20779 4.11149 1.71582 4.60346 1.98417C5.09542 2.25252 5.67687 2.38669 5.85575 1.98417ZM10.5503 4.99999C10.8264 4.99999 11.0503 4.77614 11.0503 4.5C11.0503 4.22386 10.8264 4 10.5503 4C10.2741 4 10.0503 4.22386 10.0503 4.5C10.0503 4.77614 10.2741 4.99999 10.5503 4.99999ZM13.5 5C13.7761 5 14 4.77614 14 4.5C14 4.22386 13.7761 4.00001 13.5 4.00001C13.2239 4.00001 13 4.22386 13 4.5C13 4.77614 13.2239 5 13.5 5Z" />
</svg>
