<?xml version="1.0" encoding="utf-8"?>
<svg viewBox="181.107 117.067 58 72.891" width="58" height="72.891" xmlns="http://www.w3.org/2000/svg">
  <path d="M 191.184 127.68 C 193.811 128.299 194.738 129.38 194.429 130.925 C 193.811 132.316 191.802 131.853 190.102 130.925 C 188.402 129.998 185.775 131.698 185.775 136.025 C 185.775 140.352 189.596 144.102 190.833 146.111 C 191.822 147.718 192.996 147.605 193.614 147.347 C 197.483 144.929 197.266 142.998 200.301 140.043 C 203.391 137.19 206.327 132.758 215.29 133.398 C 226.106 134.171 225.797 138.652 225.797 142.515 C 225.797 146.842 220.698 151.786 218.689 152.405 C 216.68 153.023 218.689 154.722 220.698 154.722 C 222.707 154.722 234.142 148.85 234.142 145.605 C 234.142 142.515 232.906 141.124 230.897 140.043 C 228.888 138.961 229.197 135.716 232.906 136.488 C 235.842 137.1 240.014 140.661 238.932 146.842 C 237.892 152.786 225.179 159.049 221.316 162.449 C 219.545 164.007 218.689 168.418 218.689 170.33 C 218.689 174.656 219.153 181.273 219.153 183.127 C 219.153 184.981 220.08 185.445 221.316 185.445 C 223.943 185.445 224.098 187.763 223.325 188.999 C 222.552 190.235 216.456 189.512 215.29 187.763 C 213.744 185.445 212.096 183.311 211.272 177.747 C 210.654 173.575 210.036 171.257 209.109 169.093 C 207.718 165.848 202.619 165.694 197.828 166.775 C 190.099 168.521 188.095 180.988 186.548 187.398 C 185.605 191.303 180.66 190.457 181.14 186.779 C 182.994 172.563 188.557 157.658 188.248 153.95 C 187.939 150.241 181.449 144.06 181.14 136.025 C 180.831 127.989 188.557 127.062 191.184 127.68 Z"/>
  <circle cx="210.312" cy="140.969" r="1.391" fill="white"/>
  <circle cx="220.511" cy="140.969" r="1.391" fill="white"/>
  <g transform="matrix(0.057116, 0, 0, 0.052877, 185.671814, 109.97493)" style="">
    <g>
      <path class="st0" d="M672.4,390.4c5.1,8.8,16.6,14.6,12.9,27.8c-0.5,1.6,2,4.1,3.2,6.2c2,3.5,3.1,7.3,1.2,10.8 c-2.2,4-0.2,7,0.7,10.6c2.8,11.9-2.3,22.9-5.4,34c-3.4,11.8-14.1,18.1-22.3,26.1c-7.4,7.2-19.5,0.6-27,8.8 c-1.2,1.3-5,1.6-6.8,0.7c-6.3-3.3-12.9-1.6-19.3-2.2c-8.8-0.8-17.8-2.1-26-5.1c-13.1-5-26.2-7.3-40.1-5.9c-2.8,0.3-6,0.6-8.5-0.4 c-9.4-3.9-19.7,2.9-28.8-2.5c-13.4,7.6-27.5-1.5-41.6,1.8c-12.7,3-26.6-1.8-39.6,3.5c-2.1,0.9-4.7,0.5-7.1,0.5 c-15.9,0-31.8-2.3-47.8-0.8c-2.6,0.2-6.1-0.5-8.1-2.1c-13.5-11.4-32.5-18.7-31-41.5c0.1-2-2-4.2-3.2-6.2c-2-3.4-3.7-7.1-2.6-10.8 c2.8-9.5-4.9-21.1,5.8-29.2c0.8-0.6-0.2-3.6-0.2-5.5c0-11.7,7.8-23.8,18.2-28.7c3.4-1.6,6.7-3.4,10.4-5.3 c-1.5-3.9-3-7.5-4.6-11.5c-1.9,1.4-3.2,2.1-4.1,3.1c-17.5,18.6-36.6,34.3-63,38.7c-8.9,1.5-15.3,7.5-19.7,15.2 c-8.9,15.5-21.7,27.5-34.8,39.3c-9.9,8.8-19.9,17.7-29.9,26.4c-4.9,4.3-9.3,8.2-2.4,14.5c1.1,1,1.8,4.1,1.1,5.3 c-3.8,7,1.9,10,5,14.5c4.9,7,7.1,15.4,1.8,22.6c-4.1,5.6-3,9.7-1.3,15.4c2.6,8.7,1.2,17.5-6.5,23.2c-4.6,3.5-6.9,6.8-6.6,12.7 c0.3,8.1-4.9,13-11.8,16.2c-7.3,3.4-14.4,1.5-22,0.5c-7.4-1-14.4,6.6-23,4.8c-7.5-1.6-11.3-9.8-17.2-11.3 c-6.9-1.8-15.9,1.6-21.6-4c-9.8-9.9-21.1-18.4-30.2-28.5c-7.4-8.3-8.4-22-9.6-33.2c-1.1-9.6,4.5-19.6,4.3-30.6 c-0.2-11.7,17.9-11.9,20.3-24.5c0.6-3.3,6.7-4.8,11.2-5c6.2-0.3,12.2,1.6,18.1,1.9c5,0.3,9.2-6.5,15.6-8.5 c10.3-3.2,16.8,3.8,25.1,6.9c1.4-3.1,2.6-5.7,3.8-8.3c15.1-33.7,29.8-67.6,45.4-101.1c22-47.4,46-93.8,77.2-136 c22.2-30.1,48.1-56.4,80.8-75.2c34.3-19.6,70.7-28.8,110.6-22.3c36.6,5.9,68.7,21.1,97.3,43.9c44.7,35.6,74.3,80.9,83.9,137.9 c3.6,21.1,3.1,42.6,1.3,65.5C660.9,384.9,668.6,383.8,672.4,390.4z M187.1,485.7c3.4,1.9,5.3-0.9,7.1-2.9 c15-16,32.1-29.7,48.3-44.3c6.4-5.7,11.8-12.3,16.3-19.7c8.1-13.3,19.7-21.6,34.9-25c28.7-6.3,49-24.5,60.4-49.8 c13.6-30.1,37.3-44.1,66.9-52.2c4.7-1.3,9.4-1.4,14.1-1.3c3,0.1,6.3,0.5,6.5,4c0.3,3.7-3,4.4-6,4.4c-17.4-0.1-32,8-46.5,16.1 c-9.3,5.2-16.4,12.7-21.9,21.9c-8.1,13.6-5.5,27.2,2.4,39c5.8,8.7,17.1,11.7,27,13.8c11.4,2.4,23,2.9,34,8.1 c7.5,3.6,16.5,1.6,24.8,3.1c12.4,2.2,24.9,3.8,37.4,5.7c8.3,1.3,17.3,2.3,25.2,0.4c10.3-2.5,21-2.2,30.4-1.5 c16.8,1.4,32.4-3.1,48.6-4.3c4.1-0.3,9.3-1.5,12.4-6c4-5.7,9.5-6.6,16.3-5.6c13.9,2,19.2-2.5,20.1-16.1 c5.9-91.9-33.3-160.4-111.2-206.1c-70.8-41.5-150.4-29.7-209.7,27c-31.3,29.9-54.7,65.5-76,102.7c-29.6,51.6-53,106.2-76.9,160.5 c-2.7,6.1-5.2,12.2-8.1,19C171,483.4,180,481.9,187.1,485.7z M669.9,404.2c-2.3-0.3-4.4-2.1-4.3-4.9c0.2-8.7-6.6-8.6-10.5-5.9 c-6.5,4.3-16.4-0.7-20.9,8.7c-1.1,2.2-4.9-1-7.1-2.8c-5.6-4.4-9.5-3.2-11.8,3.5c-0.9,2.6-2.4,7.8-3.4,6.9 c-6.4-5.6-10,7.3-15.9,1.9c-1.7-1.6-5.9-2.5-6.5-1c-4.9,10.9-11.7,3.9-18,2.5c-1.7-0.4-4.6-0.1-5.4,0.9c-4.9,6.8-9.4,3.4-14.2,0 c-1.3-0.9-4.9-1.1-5.2-0.5c-4.6,8.8-9.8,3.9-14.9,0.9c-0.8-0.5-2-1.1-2.6-0.8c-9.7,4.8-20.1,1.2-30,3.2c-2.3,0.4-4.2,1.9-6.5,0.1 c-5.4-4.5-10.9-7.2-17.7-1.9c-2,1.6-4.1-1.3-6-2.6c-4.4-3.2-8.9-6-13.6-0.4c-0.5,0.6-2.3,1.1-2.4,1c-7.4-11.7-23.4,2.7-30.7-10.1 c-1.3-2.2-5.2-1.9-7.7,0.3c-1.6,1.4-3.7,2.2-5.1,0.6c-4.8-5.6-9.5-9.4-16-2.3c-0.3,0.3-1,0.4-1.3,0.3c-4.9-2-5.8-8.7-11.5-9.9 c-4.1-0.9-9.9,5.4-12.3-3.3c-1.3-4.5-5.4-5.6-9-2.7c-4.6,3.6-14.1-0.2-14.2,10.5c-0.1,5.7-9.9,9.4-4.5,17.1 c1.2,1.6,1.2,4.4-0.4,5.2c-8.1,4.4-5.6,10.6-5.3,17.8c0.3,7-2.3,13.8,3.8,19.6c2.2,2.1,2.4,5.1,1.6,8c-1.9,6.4,0.8,10.1,6.7,11.9 c2.7,0.8,4.2,2.4,3.9,5c-0.4,4.3,1.9,6.1,5.7,6.5c3.1,0.3,5.2,1.6,6.5,4.6c1.2,2.8,4.1,5.5,6.7,4.1c11-5.8,22.2,4,33-1 c3.2-1.5,5.5,0.3,8,1c7.2,2,14,2.4,20-3.2c1-0.9,2.8-2.3,3.5-2c8.4,4,16.7,1.1,25.2,1c5.8-0.1,11.7,1.7,17.7-0.7 c2.7-1.1,5.5-0.9,8.2,0.7c1.6,0.9,3.6,1.1,5.4,1.8c6.7,2.7,11.5-5.5,16.8-3.9c5.8,1.7,10.7,6.1,17,1.5c2-1.5,4.4-1.6,6.6-0.1 c6.5,4.5,13.2,4.8,20,0.8c2.8-1.6,5.5-1.2,7.9,0.6c4.1,3.1,7.9,4.7,12.9,1.4c3.2-2.1,6.1-0.6,8.6,2.4c3.9,4.9,9.1,6.9,15.2,4.4 c2.5-1,4.6-1.3,6.4,0.9c4.5,5.5,10.3,3.8,15.8,2.5c2.3-0.5,4.7-2.2,6.6-0.3c6.1,5.9,10.9,3.8,15.5-1.8c2.5-3,5.2-2.9,8.8-1.3 c5.1,2.4,9.1,0.9,11-5.1c0.5-1.7,2.2-4.3,3.2-4.3c8.6,0.3,8-7.4,11.7-11.7c4.6-5.4,6.7-10,4-16.5c-1.1-2.5-0.1-4.7,1.7-6.4 c1.4-1.3,3.9-3,2.9-4.4c-6.3-9.2,0.3-20.6-5.6-29.7c-1.6-2.4-3.9-4.3-2-7.6C677.7,409.6,677.7,405.1,669.9,404.2z M182.5,495.1 c0-2.7-2.1-4.3-4.9-3.1c-4.4,1.8-7-1.1-10.1-3.3c-2.2-1.5-5.4-4.2-7.6-1.7c-6.4,7.2-9.7,2.4-14.7-2.1c-9.7-8.8-18.3-7.9-24.5,3 c-4,7.1-6.6,5.9-11.6,1.6c-4.4-3.8-9.9-5.3-15.9-2.6c-3.7,1.7-7.3,3.7-5.9,8.2c2.2,7.1-0.3,8.8-7.3,9.5 c-10.5,1.1-12,5.7-5.3,14.4c3,3.8,2.7,5.7-1,9c-9.6,8.5-9.5,9.4-2,19.2c1.9,2.5,3.1,4.7,2.2,7.6c-1.1,3.5-3.9,6.7-1.1,10.6 c2.6,3.6,5.7,6.5,9.9,7.8c7,2.2,11.6,5.5,14.1,13.4c2.8,8.7,10.7,11.9,19.8,8.6c7-2.5,10.4-3.4,13.5,5.2 c3.1,8.6,11.9,9.7,21.6,3.8c5.1-3.1,8.3-4.9,14.9-1.1c9.6,5.7,20.2-2.2,19.6-13.8c-0.3-6.4,0-9.8,7.2-12.4 c7.8-2.8,9.5-11.8,3.8-20.7c-4-6.3-3.4-9.5,1.6-14.4c6.3-6.1,5.4-14.3-0.7-19.8c-3-2.7-9.5-2.1-9.2-7.6c0.2-3.4,3.3-6.6,5.8-11.3 C189.3,501.1,182.5,503.1,182.5,495.1z" style="fill: rgb(59, 51, 48);"/>
      <path class="st1" d="M645.8,373.7c-0.9,13.6-6.2,18.1-20.1,16.1c-6.8-1-12.3-0.1-16.3,5.6c-3.1,4.4-8.3,5.7-12.4,6 c-16.2,1.2-31.8,5.7-48.6,4.3c-9.5-0.8-20.2-1-30.4,1.5c-7.9,1.9-16.9,0.9-25.2-0.4c-12.5-1.9-25-3.6-37.4-5.7 c-8.3-1.4-17.3,0.5-24.8-3.1c-10.9-5.2-22.6-5.7-34-8.1c-9.8-2.1-21.2-5.1-27-13.8c-7.9-11.8-10.5-25.4-2.4-39 c5.5-9.2,12.6-16.8,21.9-21.9c14.5-8,29.1-16.2,46.5-16.1c3,0,6.2-0.7,6-4.4c-0.2-3.5-3.6-4-6.5-4c-4.8-0.1-9.5,0-14.1,1.3 c-29.5,8.1-53.2,22-66.9,52.2c-11.4,25.3-31.7,43.5-60.4,49.8c-15.2,3.3-26.9,11.7-34.9,25c-4.5,7.4-9.9,13.9-16.3,19.7 c-16.3,14.6-33.3,28.3-48.3,44.3c-1.8,2-3.7,4.8-7.1,2.9c-7.1-3.9-16.1-2.3-23.1-8.9c2.9-6.8,5.4-12.9,8.1-19 c23.9-54.3,47.3-108.9,76.9-160.5c21.4-37.2,44.7-72.8,76-102.7c59.3-56.7,139-68.5,209.7-27 C612.6,213.3,651.8,281.8,645.8,373.7z" style="fill: rgb(237, 64, 41);"/>
      <path class="st2" d="M680.2,456.8c-1.8,1.7-2.8,3.8-1.7,6.4c2.7,6.5,0.7,11.1-4,16.5c-3.6,4.2-3,12-11.7,11.7 c-1,0-2.7,2.6-3.2,4.3c-1.9,5.9-5.9,7.4-11,5.1c-3.6-1.7-6.3-1.7-8.8,1.3c-4.7,5.6-9.5,7.7-15.5,1.8c-1.9-1.9-4.3-0.3-6.6,0.3 c-5.5,1.3-11.2,3-15.8-2.5c-1.7-2.1-3.9-1.9-6.4-0.9c-6.1,2.5-11.2,0.6-15.2-4.4c-2.4-3-5.4-4.5-8.6-2.4c-5,3.4-8.8,1.7-12.9-1.4 c-2.4-1.9-5.1-2.3-7.9-0.6c-6.8,4-13.5,3.6-20-0.8c-2.2-1.5-4.6-1.4-6.6,0.1c-6.3,4.6-11.2,0.2-17-1.5 c-5.3-1.6-10.1,6.6-16.8,3.9c-1.7-0.7-3.8-0.8-5.4-1.8c-2.7-1.6-5.4-1.9-8.2-0.7c-5.9,2.5-11.8,0.6-17.7,0.7 c-8.5,0.2-16.8,3.1-25.2-1c-0.7-0.3-2.5,1.1-3.5,2c-6,5.5-12.8,5.2-20,3.2c-2.6-0.7-4.8-2.5-8-1c-10.7,5-22-4.8-33,1 c-2.5,1.3-5.4-1.3-6.7-4.1c-1.3-3-3.4-4.2-6.5-4.6c-3.7-0.4-6.1-2.2-5.7-6.5c0.2-2.7-1.2-4.2-3.9-5c-5.9-1.8-8.6-5.5-6.7-11.9 c0.9-2.9,0.7-5.8-1.6-8c-6.1-5.8-3.5-12.6-3.8-19.6c-0.3-7.2-2.8-13.4,5.3-17.8c1.6-0.8,1.5-3.6,0.4-5.2 c-5.5-7.7,4.4-11.4,4.5-17.1c0.1-10.7,9.7-6.9,14.2-10.5c3.6-2.9,7.8-1.9,9,2.7c2.4,8.7,8.2,2.4,12.3,3.3 c5.6,1.2,6.6,7.8,11.5,9.9c0.4,0.1,1.1,0,1.3-0.3c6.5-7.1,11.2-3.3,16,2.3c1.3,1.6,3.5,0.8,5.1-0.6c2.5-2.3,6.4-2.6,7.7-0.3 c7.3,12.9,23.3-1.5,30.7,10.1c0.1,0.2,1.9-0.4,2.4-1c4.7-5.6,9.2-2.8,13.6,0.4c1.9,1.4,4,4.2,6,2.6c6.8-5.2,12.2-2.6,17.7,1.9 c2.2,1.9,4.2,0.4,6.5-0.1c9.9-1.9,20.4,1.7,30-3.2c0.6-0.3,1.8,0.4,2.6,0.8c5.2,3,10.3,7.9,14.9-0.9c0.3-0.6,3.9-0.4,5.2,0.5 c4.9,3.4,9.3,6.7,14.2,0c0.8-1.1,3.7-1.3,5.4-0.9c6.3,1.4,13.1,8.5,18-2.5c0.7-1.5,4.8-0.5,6.5,1c5.9,5.4,9.5-7.5,15.9-1.9 c1.1,0.9,2.6-4.3,3.4-6.9c2.3-6.7,6.2-7.9,11.8-3.5c2.2,1.7,6,5,7.1,2.8c4.5-9.5,14.4-4.4,20.9-8.7c3.9-2.6,10.7-2.8,10.5,5.9 c-0.1,2.8,2,4.6,4.3,4.9c7.8,0.9,7.8,5.4,5.7,11.1c-1.9,3.3,0.4,5.2,2,7.6c5.9,9-0.8,20.5,5.6,29.7 C684,453.8,681.5,455.5,680.2,456.8z M198.2,522.2c-3-2.7-9.5-2.1-9.2-7.6c0.2-3.4,3.3-6.6,5.8-11.3c-5.5-2.2-12.3-0.2-12.3-8.2 c0-2.7-2.1-4.3-4.9-3.1c-4.4,1.8-7-1.1-10.1-3.3c-2.2-1.5-5.4-4.2-7.6-1.7c-6.4,7.2-9.7,2.4-14.7-2.1c-9.7-8.8-18.3-7.9-24.5,3 c-4,7.1-6.6,5.9-11.6,1.6c-4.4-3.8-9.9-5.3-15.9-2.6c-3.7,1.7-7.3,3.7-5.9,8.2c2.2,7.1-0.3,8.8-7.3,9.5 c-10.5,1.1-12,5.7-5.3,14.4c3,3.8,2.7,5.7-1,9c-9.6,8.5-9.5,9.4-2,19.2c1.9,2.5,3.1,4.7,2.2,7.6c-1.1,3.5-3.9,6.7-1.1,10.6 c2.6,3.6,5.7,6.5,9.9,7.8c7,2.2,11.6,5.5,14.1,13.4c2.8,8.7,10.7,11.9,19.8,8.6c7-2.5,10.4-3.4,13.5,5.2 c3.1,8.6,11.9,9.7,21.6,3.8c5.1-3.1,8.3-4.9,14.9-1.1c9.6,5.7,20.2-2.2,19.6-13.8c-0.3-6.4,0-9.8,7.2-12.4 c7.8-2.8,9.5-11.8,3.8-20.7c-4-6.3-3.4-9.5,1.6-14.4C205.1,535.8,204.3,527.7,198.2,522.2z" style="fill: rgb(238, 238, 237);"/>
    </g>
  </g>
</svg>