<svg width="16" height="16" viewBox="0 0 16 16" fill="none" xmlns="http://www.w3.org/2000/svg">
<path d="M10 8.66675H11V10.5467L12.6267 11.4867L12.1267 12.3534L10 11.1267V8.66675ZM12.6667 5.33342H3.33333V12.6667H6.44667C6.16 12.0601 6 11.3801 6 10.6667C6 9.42907 6.49167 8.24209 7.36684 7.36692C8.242 6.49175 9.42899 6.00008 10.6667 6.00008C11.38 6.00008 12.06 6.16008 12.6667 6.44675V5.33342ZM3.33333 14.0001C2.59333 14.0001 2 13.4001 2 12.6667V3.33341C2 2.59341 2.59333 2.00008 3.33333 2.00008H4V0.666748H5.33333V2.00008H10.6667V0.666748H12V2.00008H12.6667C13.0203 2.00008 13.3594 2.14056 13.6095 2.39061C13.8595 2.64065 14 2.97979 14 3.33341V7.40008C14.8267 8.24008 15.3333 9.39342 15.3333 10.6667C15.3333 11.9044 14.8417 13.0914 13.9665 13.9666C13.0913 14.8417 11.9043 15.3334 10.6667 15.3334C9.39333 15.3334 8.24 14.8267 7.4 14.0001H3.33333ZM10.6667 7.43341C9.80913 7.43341 8.98672 7.77407 8.38035 8.38044C7.77399 8.9868 7.43333 9.80921 7.43333 10.6667C7.43333 12.4534 8.88 13.9001 10.6667 13.9001C11.0913 13.9001 11.5117 13.8164 11.904 13.654C12.2963 13.4915 12.6527 13.2533 12.953 12.9531C13.2532 12.6528 13.4914 12.2964 13.6539 11.9041C13.8164 11.5118 13.9 11.0914 13.9 10.6667C13.9 8.88008 12.4533 7.43341 10.6667 7.43341Z" fill="white" fill-opacity="0.6"/>
</svg>
