<svg width="100%" height="100%" viewBox="0 0 24 24" version="1.1" xmlns="http://www.w3.org/2000/svg"  xml:space="preserve" style="fill-rule:evenodd;clip-rule:evenodd;stroke-linejoin:round;stroke-miterlimit:2;"><path d="M11.769,11.774l-9.175,-9.179l-1.28,1.27c1.824,1.844 3.357,3.388 4.743,4.78c-0.344,0.453 -0.637,1.063 -0.687,1.805c-0.03,0.52 0.04,1.05 0.2,1.55c-0.553,0.159 -0.909,0.353 -1.028,0.418c-0.023,0.013 -0.037,0.02 -0.042,0.022c-0.32,0.12 -0.85,0.49 -1,0.69c-0.35,0.4 -0.58,0.87 -0.71,1.37c-0.29,1.09 -0.19,2.33 0.34,3.33c0.29,0.56 0.69,1.17 1.13,1.6c1.44,1.48 3.92,2.04 5.88,2.36c2.39,0.4 4.89,0.26 7.12,-0.66c0.321,-0.133 0.619,-0.274 0.896,-0.42c0.887,0.885 1.844,1.841 2.888,2.885l1.27,-1.27l-2.63,-2.631c0.007,-0.006 0.014,-0.011 0.02,-0.017c-1.772,-1.769 -3.268,-3.258 -4.626,-4.609c-0.009,-0.003 -0.018,-0.006 -0.027,-0.01l-1.599,-1.6c-0.002,-0.004 -0.004,-0.009 -0.005,-0.013c-0.571,-0.569 -1.126,-1.121 -1.678,-1.671Zm2.092,4.657c0.589,0.585 1.203,1.197 1.855,1.847c-0.067,0.087 -0.14,0.171 -0.216,0.252c-0.46,0.47 -1.53,1.38 -3.31,1.38c-1.78,0 -2.86,-0.91 -3.31,-1.38c-0.74,-0.78 -1.09,-1.93 -0.62,-2.25c0.14,-0.09 0.29,-0.13 0.45,-0.13c0.219,-0.008 0.42,0.042 0.609,0.088c0.062,0.015 0.122,0.03 0.181,0.042c1.18,0.22 2.2,0.25 2.69,0.25c0.343,-0 0.941,-0.015 1.671,-0.099Zm-6.525,-6.504c0.473,0.473 0.932,0.932 1.385,1.385c-0.027,-0.002 -0.054,-0.003 -0.081,-0.002c-0.04,-0 -0.07,-0 -0.11,0.01c-0.56,0.07 -0.96,0.58 -0.89,1.13c0.06,0.55 0.57,0.94 1.13,0.87c0.535,-0.067 0.924,-0.535 0.905,-1.056c0.427,0.426 0.853,0.849 1.282,1.277c-0.369,0.911 -1.187,1.573 -2.177,1.649l-0.01,-0c-1.43,0.11 -2.69,-1.05 -2.81,-2.59c-0.082,-1.146 0.49,-2.175 1.376,-2.673Z" style="fill:#fff;"/><path d="M8.229,5.651l5.39,5.393c0.475,-0.887 1.382,-1.471 2.381,-1.434c0.037,-0 0.07,0.003 0.102,0.005c0.03,0.003 0.059,0.005 0.088,0.005c1.43,0.16 2.45,1.54 2.28,3.07c-0.095,0.857 -0.545,1.586 -1.174,2.033l3.631,3.633c0.46,-0.656 0.654,-1.207 0.713,-1.466c0.29,-1.39 -0.07,-2.7 -0.22,-3.02c-0.22,-0.46 -0.58,-0.93 -1.17,-1.23c-0.4,-0.25 -0.75,-0.38 -1.01,-0.44c0.26,-0.95 -0.11,-1.7 -0.62,-2.26c-0.77,-0.82 -1.56,-0.94 -1.56,-0.94c0.26,-0.5 0.36,-1.1 0.22,-1.68c-0.16,-0.71 -0.55,-1.16 -1.06,-1.46c-0.52,-0.31 -1.16,-0.46 -1.82,-0.58c-0.021,-0.004 -0.046,-0.008 -0.075,-0.013c-0.415,-0.074 -1.611,-0.286 -2.125,-0.997c-0.312,-0.429 -0.412,-1.098 -0.484,-1.579c-0.033,-0.213 -0.059,-0.39 -0.096,-0.491c-0.05,-0.13 -0.12,-0.2 -0.26,-0.2c-0.21,-0 -0.49,0.12 -0.79,0.32c-0.57,0.38 -1.72,1.58 -2.17,2.78c-0.071,0.188 -0.127,0.372 -0.171,0.551Z" style="fill:#fff;fill-rule:nonzero;"/><path d="M14.958,12.384l0.956,0.956c0.588,0.038 1.046,-0.391 1.086,-0.94c0.04,-0.56 -0.39,-1.04 -0.95,-1.07l-0.11,0c-0.52,0.02 -0.94,0.42 -0.98,0.95c-0.002,0.035 -0.003,0.069 -0.002,0.104Z" style="fill:#fff;fill-rule:nonzero;"/></svg>