<svg width="20" height="20" viewBox="0 0 20 20" xmlns="http://www.w3.org/2000/svg">
    <path d="M17.5 15.8333V16.6667H2.5V15.8333L4.16667 14.1667V9.16666C4.16667 6.58332 5.85833 4.30832 8.33333 3.57499C8.33333 3.49166 8.33333 3.41666 8.33333 3.33332C8.33333 2.8913 8.50893 2.46737 8.82149 2.15481C9.13405 1.84225 9.55797 1.66666 10 1.66666C10.442 1.66666 10.866 1.84225 11.1785 2.15481C11.4911 2.46737 11.6667 2.8913 11.6667 3.33332C11.6667 3.41666 11.6667 3.49166 11.6667 3.57499C14.1417 4.30832 15.8333 6.58332 15.8333 9.16666V14.1667L17.5 15.8333ZM11.6667 17.5C11.6667 17.942 11.4911 18.3659 11.1785 18.6785C10.866 18.9911 10.442 19.1667 10 19.1667C9.55797 19.1667 9.13405 18.9911 8.82149 18.6785C8.50893 18.3659 8.33333 17.942 8.33333 17.5" />
</svg>
