<svg width="20" height="20" viewBox="0 0 20 20" xmlns="http://www.w3.org/2000/svg">
    <path d="M9.99984 16C7.9165 16 6.07484 14.9333 4.99984 13.3333C5.02484 11.6667 8.33317 10.75 9.99984 10.75C11.6665 10.75 14.9748 11.6667 14.9998 13.3333C13.9248 14.9333 12.0832 16 9.99984 16ZM9.99984 4.16666C10.6629 4.16666 11.2988 4.43005 11.7676 4.89889C12.2364 5.36773 12.4998 6.00362 12.4998 6.66666C12.4998 7.3297 12.2364 7.96558 11.7676 8.43442C11.2988 8.90327 10.6629 9.16666 9.99984 9.16666C9.3368 9.16666 8.70091 8.90327 8.23207 8.43442C7.76323 7.96558 7.49984 7.3297 7.49984 6.66666C7.49984 6.00362 7.76323 5.36773 8.23207 4.89889C8.70091 4.43005 9.3368 4.16666 9.99984 4.16666V4.16666ZM9.99984 1.66666C8.90549 1.66666 7.82186 1.8822 6.81081 2.30099C5.79976 2.71978 4.8811 3.33361 4.10728 4.10743C2.54448 5.67024 1.6665 7.78985 1.6665 9.99999C1.6665 12.2101 2.54448 14.3297 4.10728 15.8925C4.8811 16.6664 5.79976 17.2802 6.81081 17.699C7.82186 18.1178 8.90549 18.3333 9.99984 18.3333C12.21 18.3333 14.3296 17.4554 15.8924 15.8925C17.4552 14.3297 18.3332 12.2101 18.3332 9.99999C18.3332 5.39166 14.5832 1.66666 9.99984 1.66666Z" />
</svg>
