<svg width="20" height="20" viewBox="0 0 20 20" xmlns="http://www.w3.org/2000/svg">
    <path d="M2.95825 15.45L4.13325 16.625L5.63325 15.1333L4.44992 13.95L2.95825 15.45ZM9.16658 18.7083C9.43325 18.7083 10.8333 18.7083 10.8333 18.7083V16.25H9.16658V18.7083ZM9.99992 4.58334C8.67384 4.58334 7.40207 5.11013 6.46438 6.04781C5.5267 6.98549 4.99992 8.25726 4.99992 9.58334C4.99992 10.9094 5.5267 12.1812 6.46438 13.1189C7.40207 14.0566 8.67384 14.5833 9.99992 14.5833C11.326 14.5833 12.5978 14.0566 13.5355 13.1189C14.4731 12.1812 14.9999 10.9094 14.9999 9.58334C14.9999 6.81668 12.7583 4.58334 9.99992 4.58334ZM16.6666 10.4167H19.1666V8.75001H16.6666V10.4167ZM14.3666 15.1333L15.8666 16.625L17.0416 15.45L15.5499 13.95L14.3666 15.1333ZM17.0416 3.71668L15.8666 2.54168L14.3666 4.03334L15.5499 5.21668L17.0416 3.71668ZM10.8333 0.458344H9.16658V2.91668H10.8333V0.458344ZM3.33325 8.75001H0.833252V10.4167H3.33325V8.75001ZM5.63325 4.03334L4.13325 2.54168L2.95825 3.71668L4.44992 5.21668L5.63325 4.03334Z" />
</svg>
