<svg width="20" height="20" viewBox="0 0 20 20" xmlns="http://www.w3.org/2000/svg">
    <path d="M14.7916 3.40834L12.6833 5.02501L13.4416 7.57501L11.2499 6.06668L9.05827 7.57501L9.8166 5.02501L7.70827 3.40834L10.3666 3.33334L11.2499 0.833344L12.1333 3.33334L14.7916 3.40834ZM17.7083 9.16668L16.3416 10.2083L16.8333 11.8583L15.4166 10.8833L13.9999 11.8583L14.4916 10.2083L13.1249 9.16668L14.8416 9.12501L15.4166 7.50001L15.9916 9.12501L17.7083 9.16668ZM16.3416 14C17.0333 13.9333 17.2416 14.2083 16.7999 14.8333C16.5333 15.2083 16.2499 15.5583 15.8999 15.8917C12.6416 19.1667 7.3666 19.1667 4.1166 15.8917C0.858268 12.6417 0.858268 7.35834 4.1166 4.10834C4.44993 3.77501 4.79993 3.47501 5.17493 3.20834C5.79993 2.76668 5.56667 3.41668 5.5 4.10834C5.275 6.49168 5.41237 9.69362 7.70827 12C10.5287 14.8333 13.9499 14.225 16.3416 14Z" />
</svg>
