<svg width="24" height="24" viewBox="0 0 24 24" xmlns="http://www.w3.org/2000/svg">
    <path d="M11.8585 9.5L14.5002 12.1333C14.5002 12.0917 14.5002 12.0417 14.5002 12C14.5002 11.337 14.2368 10.7011 13.7679 10.2322C13.2991 9.76339 12.6632 9.5 12.0002 9.5C11.9502 9.5 11.9085 9.5 11.8585 9.5ZM8.27516 10.1667L9.56683 11.4583C9.52516 11.6333 9.50016 11.8083 9.50016 12C9.50016 12.663 9.76355 13.2989 10.2324 13.7678C10.7012 14.2366 11.3371 14.5 12.0002 14.5C12.1835 14.5 12.3668 14.475 12.5418 14.4333L13.8335 15.725C13.2752 16 12.6585 16.1667 12.0002 16.1667C10.8951 16.1667 9.83529 15.7277 9.05388 14.9463C8.27248 14.1649 7.8335 13.1051 7.8335 12C7.8335 11.3417 8.00016 10.725 8.27516 10.1667ZM3.66683 5.55833L5.56683 7.45833L5.94183 7.83333C4.56683 8.91667 3.4835 10.3333 2.8335 12C4.27516 15.6583 7.8335 18.25 12.0002 18.25C13.2918 18.25 14.5252 18 15.6502 17.55L16.0085 17.9L18.4418 20.3333L19.5002 19.275L4.72516 4.5L3.66683 5.55833ZM12.0002 7.83333C13.1052 7.83333 14.165 8.27232 14.9464 9.05372C15.7278 9.83512 16.1668 10.8949 16.1668 12C16.1668 12.5333 16.0585 13.05 15.8668 13.5167L18.3085 15.9583C19.5585 14.9167 20.5585 13.55 21.1668 12C19.7252 8.34167 16.1668 5.75 12.0002 5.75C10.8335 5.75 9.71683 5.95833 8.66683 6.33333L10.4752 8.125C10.9502 7.94167 11.4585 7.83333 12.0002 7.83333Z" />
</svg>
