<svg width="14" height="14" viewBox="0 0 14 14" fill="none" xmlns="http://www.w3.org/2000/svg">
<path d="M7.50001 2C8.09675 2 8.66905 2.23706 9.09101 2.65901C9.51296 3.08097 9.75002 3.65326 9.75002 4.25C9.75002 4.84673 9.51296 5.41903 9.09101 5.84098C8.66905 6.26294 8.09675 6.49999 7.50001 6.49999C6.90327 6.49999 6.33097 6.26294 5.90902 5.84098C5.48706 5.41903 5.25001 4.84673 5.25001 4.25C5.25001 3.65326 5.48706 3.08097 5.90902 2.65901C6.33097 2.23706 6.90327 2 7.50001 2ZM7.50001 7.62499C9.98628 7.62499 12 8.63186 12 9.87497V11H3V9.87497C3 8.63186 5.01375 7.62499 7.50001 7.62499Z" fill="#D9D9D9"/>
</svg>
