<svg width="14" height="14" viewBox="0 0 14 14" fill="none" xmlns="http://www.w3.org/2000/svg">
  <path d="M7.00016 2.33334C7.619 2.33334 8.21249 2.57918 8.65008 3.01676C9.08766 3.45435 9.3335 4.04784 9.3335 4.66668C9.3335 5.28551 9.08766 5.87901 8.65008 6.31659C8.21249 6.75418 7.619 7.00001 7.00016 7.00001C6.38132 7.00001 5.78783 6.75418 5.35025 6.31659C4.91266 5.87901 4.66683 5.28551 4.66683 4.66668C4.66683 4.04784 4.91266 3.45435 5.35025 3.01676C5.78783 2.57918 6.38132 2.33334 7.00016 2.33334ZM7.00016 8.16668C9.5785 8.16668 11.6668 9.21084 11.6668 10.5V11.6667H2.3335V10.5C2.3335 9.21084 4.42183 8.16668 7.00016 8.16668Z" />
</svg>
