<svg width="14" height="14" viewBox="0 0 14 14" fill="none" xmlns="http://www.w3.org/2000/svg">
<path d="M7.50001 2.21484C8.09675 2.21484 8.66905 2.4519 9.09101 2.87385C9.51296 3.29581 9.75002 3.86811 9.75002 4.46484C9.75002 5.06157 9.51296 5.63387 9.09101 6.05582C8.66905 6.47778 8.09675 6.71483 7.50001 6.71483C6.90327 6.71483 6.33097 6.47778 5.90902 6.05582C5.48706 5.63387 5.25001 5.06157 5.25001 4.46484C5.25001 3.86811 5.48706 3.29581 5.90902 2.87385C6.33097 2.4519 6.90327 2.21484 7.50001 2.21484ZM7.50001 7.83983C9.98628 7.83983 12 8.8467 12 10.0898V11.2148H3V10.0898C3 8.8467 5.01375 7.83983 7.50001 7.83983Z" fill="#D9D9D9"/>
</svg>
