<svg xmlns="http://www.w3.org/2000/svg" width="96" height="96" viewBox="0 0 48 48"><path style="fill:#00adef" d="M 7.199219 0 L 40.800781 0 C 44.777344 0 48 3.222656 48 7.199219 L 48 40.800781 C 48 44.777344 44.777344 48 40.800781 48 L 7.199219 48 C 3.222656 48 0 44.777344 0 40.800781 L 0 7.199219 C 0 3.222656 3.222656 0 7.199219 0 Z M 7.199219 0 "/><path style="fill:#fff" d="M 39.1875 17.34375 C 37.40625 27.5625 27.1875 36.28125 24.09375 38.25 C 21.09375 40.21875 18.28125 37.40625 17.25 35.4375 C 16.125 33 12.65625 20.0625 11.71875 18.9375 C 10.875 17.8125 8.0625 20.0625 8.0625 20.0625 L 6.84375 18.28125 C 6.84375 18.28125 12.375 11.625 16.59375 10.875 C 21 9.9375 21 17.71875 22.125 21.9375 C 23.15625 26.15625 23.8125 28.5 24.65625 28.5 C 25.59375 28.5 27.375 26.25 29.25 22.59375 C 31.21875 19.125 29.15625 15.9375 25.40625 18.1875 C 27 9.28125 40.96875 7.125 39.1875 17.34375 Z M 39.1875 17.34375 "/></svg>