<svg width="24" height="24" viewBox="0 0 24 24" xmlns="http://www.w3.org/2000/svg">
    <path d="M12.0002 9.5C11.3371 9.5 10.7012 9.76339 10.2324 10.2322C9.76355 10.7011 9.50016 11.337 9.50016 12C9.50016 12.663 9.76355 13.2989 10.2324 13.7678C10.7012 14.2366 11.3371 14.5 12.0002 14.5C12.6632 14.5 13.2991 14.2366 13.7679 13.7678C14.2368 13.2989 14.5002 12.663 14.5002 12C14.5002 11.337 14.2368 10.7011 13.7679 10.2322C13.2991 9.76339 12.6632 9.5 12.0002 9.5ZM12.0002 16.1667C10.8951 16.1667 9.83529 15.7277 9.05388 14.9463C8.27248 14.1649 7.8335 13.1051 7.8335 12C7.8335 10.8949 8.27248 9.83512 9.05388 9.05372C9.83529 8.27232 10.8951 7.83333 12.0002 7.83333C13.1052 7.83333 14.165 8.27232 14.9464 9.05372C15.7278 9.83512 16.1668 10.8949 16.1668 12C16.1668 13.1051 15.7278 14.1649 14.9464 14.9463C14.165 15.7277 13.1052 16.1667 12.0002 16.1667ZM12.0002 5.75C7.8335 5.75 4.27516 8.34167 2.8335 12C4.27516 15.6583 7.8335 18.25 12.0002 18.25C16.1668 18.25 19.7252 15.6583 21.1668 12C19.7252 8.34167 16.1668 5.75 12.0002 5.75Z" />
</svg>
